<svg xmlns="http://www.w3.org/2000/svg" viewBox="0 0 741 900"><defs><style>.cls-1{fill:#e74b3c;stroke-width:6px;}.cls-1,.cls-2,.cls-3,.cls-4,.cls-5{stroke:#000;stroke-miterlimit:10;}.cls-2{fill:#2d2926;}.cls-2,.cls-3,.cls-4{stroke-width:4px;}.cls-3{fill:#9fc4a6;}.cls-4{fill:#619f87;}.cls-5{fill:#eecea2;stroke-width:3px;}</style></defs><title>Artboard 12 copy 7</title><g id="_BODY-ROUNDED" data-name=" BODY-ROUNDED"><path class="cls-1" d="M456,715h0A105,105,0,0,1,561,610h52l163-2V452H445.84a150.78,150.78,0,0,0-32.12,3.37C350.64,469.14,308.22,504.56,300,605.23V1070H456V715Z"/><g id="STRIPES"><rect class="cls-2" x="340" y="787.32" width="74" height="74" transform="translate(1226.46 1140.63) rotate(135)"/><rect class="cls-3" x="360.74" y="808.06" width="32.53" height="32.53" transform="translate(1226.46 1140.63) rotate(135)"/></g><g id="STRIPES-2" data-name="STRIPES"><rect class="cls-2" x="332" y="594.32" width="74" height="74" transform="translate(1076.33 816.81) rotate(135)"/><rect class="cls-3" x="352.74" y="615.06" width="32.53" height="32.53" transform="translate(1076.33 816.81) rotate(135)"/></g><g id="STRIPES-3" data-name="STRIPES"><rect class="cls-2" x="441" y="485.32" width="74" height="74" transform="translate(1185.33 553.66) rotate(135)"/><rect class="cls-3" x="461.74" y="506.06" width="32.53" height="32.53" transform="translate(1185.33 553.66) rotate(135)"/></g><g id="STRIPES-4" data-name="STRIPES"><polygon class="cls-2" points="725.33 456.32 673 508.65 620.67 456.32 725.33 456.32"/><polygon class="cls-3" points="696 456.32 673 479.32 650 456.32 696 456.32"/></g><g id="STRPIES-SIDE"><polyline class="cls-4" points="456 769.5 438.32 751.82 456 734.14"/><polyline class="cls-4" points="300 734.14 317.68 751.82 300 769.5"/></g><g id="STRPIES-SIDE-2" data-name="STRPIES-SIDE"><polyline class="cls-4" points="456 917.68 438.32 900 456 882.32"/><polyline class="cls-4" points="300 882.32 317.68 900 300 917.68"/></g><g id="STRPIES-SIDE-3" data-name="STRPIES-SIDE"><polygon class="cls-4" points="465.62 664.31 455.51 641.44 478.38 631.34 465.62 664.31"/></g><g id="STRPIES-SIDE-4" data-name="STRPIES-SIDE"><polygon class="cls-4" points="553.32 546.06 570.76 528.15 588.68 545.58 553.32 546.06"/></g><g id="STRPIES-SIDE-5" data-name="STRPIES-SIDE"><polygon class="cls-4" points="723.32 546.48 740.76 528.56 758.68 546 723.32 546.48"/></g><g id="STRPIES-SIDE-6" data-name="STRPIES-SIDE"><polygon class="cls-4" points="321.48 522.02 332.81 544.31 310.52 555.63 321.48 522.02"/></g><path class="cls-5" d="M572.08,611.32c-45.5,3.93-71.32,5.5-90.08,59.5s-25.78,169.5-25.78,169.5-1.5-116.83-1-125c1.95-32,4.6-37.06,16.4-66,3.26-8,11.16-26.91,26.12-42,18.31-18.45,41.86-24.5,41.86-24.5l235.4-.5v29l-141.11.07Z"/></g></svg>