<svg xmlns="http://www.w3.org/2000/svg" viewBox="0 0 741 900"><defs><style>.cls-1{fill:#e74b3c;}.cls-1,.cls-2,.cls-3,.cls-4,.cls-5{stroke:#000;stroke-miterlimit:10;stroke-width:4px;}.cls-2{fill:#2d2926;}.cls-3{fill:#9fc4a6;}.cls-4{fill:#eecea2;}.cls-5{fill:#619f87;}</style></defs><title>Artboard 5</title><g id="SNAKE-EATING-BODY"><polygon class="cls-1" points="781.5 451.12 -14.33 450 -16.5 582 781.5 582 781.5 451.12"/><polygon class="cls-2" points="36.5 450.44 117.63 533.93 211.5 450.91 36.5 450.44"/><polygon class="cls-3" points="78.01 450.68 117.59 491.42 163.39 450.91 78.01 450.68"/><polygon class="cls-2" points="278.5 450.53 359.63 534.02 453.5 451 278.5 450.53"/><polygon class="cls-3" points="320.01 450.77 359.59 491.5 405.39 451 320.01 450.77"/><polygon class="cls-2" points="519.5 450.53 600.63 534.02 694.5 451 519.5 450.53"/><polygon class="cls-3" points="561.01 450.77 600.59 491.5 646.39 451 561.01 450.77"/><polygon class="cls-4" points="-38.74 582 773.5 582 773.5 612 -41.5 612 -38.74 582"/><polygon class="cls-5" points="207.35 546 242 511.35 276.65 546 207.35 546"/><polygon class="cls-5" points="-34.65 546 0 511.35 34.65 546 -34.65 546"/><polygon class="cls-5" points="453.35 546 488 511.35 522.65 546 453.35 546"/><polygon class="cls-5" points="704.35 546 739 511.35 773.65 546 704.35 546"/></g></svg>