<svg xmlns="http://www.w3.org/2000/svg" viewBox="0 0 741 900"><defs><style>.cls-1{fill:#e74b3c;}.cls-1,.cls-2,.cls-3,.cls-4{stroke:#000;stroke-miterlimit:10;stroke-width:6px;}.cls-2{fill:#2d2926;}.cls-3{fill:#9fc4a6;}.cls-4{fill:#619f87;}</style></defs><title>Artboard 12 copy</title><g id="BODY-VERTICAL"><rect class="cls-1" x="300" y="-10" width="156" height="920"/><g id="STRIPES"><rect class="cls-2" x="342" y="83" width="74" height="74" transform="translate(26.15 303.14) rotate(-45)"/><rect class="cls-3" x="362.74" y="103.74" width="32.53" height="32.53" transform="translate(26.15 303.14) rotate(-45)"/></g><g id="STRIPES-2" data-name="STRIPES"><rect class="cls-2" x="342" y="249" width="74" height="74" transform="translate(-91.23 351.76) rotate(-45)"/><rect class="cls-3" x="362.74" y="269.74" width="32.53" height="32.53" transform="translate(-91.23 351.76) rotate(-45)"/></g><g id="STRIPES-3" data-name="STRIPES"><rect class="cls-2" x="342" y="415" width="74" height="74" transform="translate(-208.61 400.38) rotate(-45)"/><rect class="cls-3" x="362.74" y="435.74" width="32.53" height="32.53" transform="translate(-208.61 400.38) rotate(-45)"/></g><g id="STRIPES-4" data-name="STRIPES"><rect class="cls-2" x="342" y="581" width="74" height="74" transform="translate(-325.99 449) rotate(-45)"/><rect class="cls-3" x="362.74" y="601.74" width="32.53" height="32.53" transform="translate(-325.99 449) rotate(-45)"/></g><g id="STRIPES-5" data-name="STRIPES"><rect class="cls-2" x="342" y="747" width="74" height="74" transform="translate(-443.37 497.62) rotate(-45)"/><rect class="cls-3" x="362.74" y="767.74" width="32.53" height="32.53" transform="translate(-443.37 497.62) rotate(-45)"/></g><g id="STRPIES-SIDE"><polyline class="cls-4" points="300 185.82 317.68 203.5 300 221.18"/><polyline class="cls-4" points="456 221.18 438.32 203.5 456 185.82"/></g><g id="STRPIES-SIDE-2" data-name="STRPIES-SIDE"><polyline class="cls-4" points="300 -17.68 317.68 0 300 17.68"/><polyline class="cls-4" points="456 17.68 438.32 0 456 -17.68"/></g><g id="STRPIES-SIDE-3" data-name="STRPIES-SIDE"><polyline class="cls-4" points="300 350.82 317.68 368.5 300 386.18"/><polyline class="cls-4" points="456 386.18 438.32 368.5 456 350.82"/></g><g id="STRPIES-SIDE-4" data-name="STRPIES-SIDE"><polyline class="cls-4" points="300 516.82 317.68 534.5 300 552.18"/><polyline class="cls-4" points="456 552.18 438.32 534.5 456 516.82"/></g><g id="STRPIES-SIDE-5" data-name="STRPIES-SIDE"><polyline class="cls-4" points="300 682.82 317.68 700.5 300 718.18"/><polyline class="cls-4" points="456 718.18 438.32 700.5 456 682.82"/></g><g id="STRPIES-SIDE-6" data-name="STRPIES-SIDE"><polyline class="cls-4" points="300 882.52 317.68 900.2 300 917.88"/><polyline class="cls-4" points="456 917.88 438.32 900.2 456 882.52"/></g></g></svg>