<svg xmlns="http://www.w3.org/2000/svg" viewBox="0 0 741 900"><defs><style>.cls-1{fill:#e74b3c;stroke-width:6px;}.cls-1,.cls-2,.cls-3,.cls-4,.cls-5{stroke:#000;stroke-miterlimit:10;}.cls-2{fill:#2d2926;}.cls-2,.cls-3,.cls-4{stroke-width:4px;}.cls-3{fill:#9fc4a6;}.cls-4{fill:#619f87;}.cls-5{fill:#eecea2;stroke-width:3px;}</style></defs><title>Artboard 12 copy 6</title><g id="_BODY-ROUNDED" data-name=" BODY-ROUNDED"><path class="cls-1" d="M300,715h0A105,105,0,0,0,195,610H143l-163-2V452H310.16a150.78,150.78,0,0,1,32.12,3.37c63.08,13.77,105.5,49.19,113.72,149.86V1070H300V715Z"/><g id="STRIPES"><rect class="cls-2" x="342" y="787.32" width="74" height="74" transform="translate(693.89 -26.56) rotate(45)"/><rect class="cls-3" x="362.74" y="808.06" width="32.53" height="32.53" transform="translate(693.89 -26.56) rotate(45)"/></g><g id="STRIPES-2" data-name="STRIPES"><rect class="cls-2" x="350" y="594.32" width="74" height="74" transform="translate(559.76 -88.74) rotate(45)"/><rect class="cls-3" x="370.74" y="615.06" width="32.53" height="32.53" transform="translate(559.76 -88.74) rotate(45)"/></g><g id="STRIPES-3" data-name="STRIPES"><rect class="cls-2" x="241" y="485.32" width="74" height="74" transform="translate(450.76 -43.59) rotate(45)"/><rect class="cls-3" x="261.74" y="506.06" width="32.53" height="32.53" transform="translate(450.76 -43.59) rotate(45)"/></g><g id="STRIPES-4" data-name="STRIPES"><polygon class="cls-2" points="30.67 456.32 83 508.65 135.33 456.32 30.67 456.32"/><polygon class="cls-3" points="60 456.32 83 479.32 106 456.32 60 456.32"/></g><g id="STRPIES-SIDE"><polyline class="cls-4" points="300 769.5 317.68 751.82 300 734.14"/><polyline class="cls-4" points="456 734.14 438.32 751.82 456 769.5"/></g><g id="STRPIES-SIDE-2" data-name="STRPIES-SIDE"><polyline class="cls-4" points="300 917.68 317.68 900 300 882.32"/><polyline class="cls-4" points="456 882.32 438.32 900 456 917.68"/></g><g id="STRPIES-SIDE-3" data-name="STRPIES-SIDE"><polygon class="cls-4" points="290.38 664.31 300.49 641.44 277.62 631.34 290.38 664.31"/></g><g id="STRPIES-SIDE-4" data-name="STRPIES-SIDE"><polygon class="cls-4" points="202.68 546.06 185.24 528.15 167.32 545.58 202.68 546.06"/></g><g id="STRPIES-SIDE-5" data-name="STRPIES-SIDE"><polygon class="cls-4" points="17.68 546.48 0.24 528.56 -17.68 546 17.68 546.48"/></g><g id="STRPIES-SIDE-6" data-name="STRPIES-SIDE"><polygon class="cls-4" points="434.52 522.02 423.19 544.31 445.48 555.63 434.52 522.02"/></g><path class="cls-5" d="M183.92,611.32c45.5,3.93,71.32,5.5,90.08,59.5s25.78,169.5,25.78,169.5,1.5-116.83,1-125c-1.95-32-4.6-37.06-16.4-66-3.26-8-11.16-26.91-26.12-42-18.31-18.45-41.86-24.5-41.86-24.5l-235.4-.5v29l141.11.07Z"/></g></svg>