<svg xmlns="http://www.w3.org/2000/svg" viewBox="0 0 741 900"><defs><style>.cls-1{fill:#e74b3c;stroke-width:6px;}.cls-1,.cls-2,.cls-3,.cls-4,.cls-5{stroke:#000;stroke-miterlimit:10;}.cls-2{fill:#2d2926;}.cls-2,.cls-3,.cls-4{stroke-width:4px;}.cls-3{fill:#9fc4a6;}.cls-4{fill:#619f87;}.cls-5{fill:#eecea2;stroke-width:3px;}</style></defs><title>Artboard 12 copy 3</title><g id="_BODY-ROUNDED" data-name=" BODY-ROUNDED"><path class="cls-1" d="M300,345h0A105,105,0,0,1,195,450H143l-163,2V608H310.16a150.78,150.78,0,0,0,32.12-3.37c63.08-13.77,105.5-49.19,113.72-149.86V-10H300V345Z"/><g id="STRIPES"><rect class="cls-2" x="342" y="83" width="74" height="74" transform="translate(26.15 303.14) rotate(-45)"/><rect class="cls-3" x="362.74" y="103.74" width="32.53" height="32.53" transform="translate(26.15 303.14) rotate(-45)"/></g><g id="STRIPES-2" data-name="STRIPES"><rect class="cls-2" x="342" y="249" width="74" height="74" transform="translate(-91.23 351.76) rotate(-45)"/><rect class="cls-3" x="362.74" y="269.74" width="32.53" height="32.53" transform="translate(-91.23 351.76) rotate(-45)"/></g><g id="STRIPES-3" data-name="STRIPES"><rect class="cls-2" x="259" y="443" width="74" height="74" transform="translate(-252.71 349.89) rotate(-45)"/><rect class="cls-3" x="279.74" y="463.74" width="32.53" height="32.53" transform="translate(-252.71 349.89) rotate(-45)"/></g><g id="STRIPES-4" data-name="STRIPES"><polygon class="cls-2" points="135.33 454 83 506.33 30.67 454 135.33 454"/><polygon class="cls-3" points="106 454 83 477 60 454 106 454"/></g><g id="STRPIES-SIDE"><polyline class="cls-4" points="300 185.82 317.68 203.5 300 221.18"/><polyline class="cls-4" points="456 221.18 438.32 203.5 456 185.82"/></g><g id="STRPIES-SIDE-2" data-name="STRPIES-SIDE"><polyline class="cls-4" points="300 -17.68 317.68 0 300 17.68"/><polyline class="cls-4" points="456 17.68 438.32 0 456 -17.68"/></g><g id="STRPIES-SIDE-3" data-name="STRPIES-SIDE"><polygon class="cls-4" points="300.69 357.45 313.05 379.19 291.31 391.55 300.69 357.45"/></g><g id="STRPIES-SIDE-4" data-name="STRPIES-SIDE"><polygon class="cls-4" points="167.21 545.5 184.88 527.82 202.56 545.5 167.21 545.5"/></g><g id="STRPIES-SIDE-5" data-name="STRPIES-SIDE"><polygon class="cls-4" points="-17.8 546 -0.12 528.32 17.56 546 -17.8 546"/></g><g id="STRPIES-SIDE-6" data-name="STRPIES-SIDE"><polygon class="cls-4" points="410.52 454.31 399.19 432.02 421.48 420.69 410.52 454.31"/></g><path class="cls-5" d="M284,582c67.95-3.93,106.5-5.5,134.5-59.5S457,353,457,353s.74,94.83,0,103c-2.91,32-5.37,59.06-23,88-4.86,8-16.66,26.91-39,42-27.33,18.46-62.5,24.5-62.5,24.5L-19,611V582l210.7-.07Z"/></g></svg>