<svg xmlns="http://www.w3.org/2000/svg" viewBox="0 0 741 900"><defs><style>.cls-1{fill:#e74b3c;stroke-width:6px;}.cls-1,.cls-2,.cls-3,.cls-4,.cls-5{stroke:#000;stroke-miterlimit:10;}.cls-2{fill:#2d2926;}.cls-2,.cls-3,.cls-4{stroke-width:4px;}.cls-3{fill:#9fc4a6;}.cls-4{fill:#619f87;}.cls-5{fill:#eecea2;stroke-width:3px;}</style></defs><title>Artboard 12 copy 5</title><g id="_BODY-ROUNDED" data-name=" BODY-ROUNDED"><path class="cls-1" d="M456.33,345h0a105,105,0,0,0,105,105h52l163,2V608H446.17a150.78,150.78,0,0,1-32.12-3.37C351,590.86,308.55,555.44,300.33,454.77V-10h156V345Z"/><g id="STRIPES"><rect class="cls-2" x="340.33" y="83" width="74" height="74" transform="translate(559.29 471.67) rotate(-135)"/><rect class="cls-3" x="361.07" y="103.74" width="32.53" height="32.53" transform="translate(559.29 471.67) rotate(-135)"/></g><g id="STRIPES-2" data-name="STRIPES"><rect class="cls-2" x="340.33" y="249" width="74" height="74" transform="translate(441.91 755.05) rotate(-135)"/><rect class="cls-3" x="361.07" y="269.74" width="32.53" height="32.53" transform="translate(441.91 755.05) rotate(-135)"/></g><g id="STRIPES-3" data-name="STRIPES"><rect class="cls-2" x="423.33" y="443" width="74" height="74" transform="translate(446.42 1144.91) rotate(-135)"/><rect class="cls-3" x="444.07" y="463.74" width="32.53" height="32.53" transform="translate(446.42 1144.91) rotate(-135)"/></g><g id="STRIPES-4" data-name="STRIPES"><polygon class="cls-2" points="621 454 673.33 506.33 725.66 454 621 454"/><polygon class="cls-3" points="650.33 454 673.33 477 696.33 454 650.33 454"/></g><g id="STRPIES-SIDE"><polyline class="cls-4" points="456.33 185.82 438.65 203.5 456.33 221.18"/><polyline class="cls-4" points="300.33 221.18 318.01 203.5 300.33 185.82"/></g><g id="STRPIES-SIDE-2" data-name="STRPIES-SIDE"><polyline class="cls-4" points="456.33 -17.68 438.65 0 456.33 17.68"/><polyline class="cls-4" points="300.33 17.68 318.01 0 300.33 -17.68"/></g><g id="STRPIES-SIDE-3" data-name="STRPIES-SIDE"><polygon class="cls-4" points="455.64 357.45 443.29 379.19 465.02 391.55 455.64 357.45"/></g><g id="STRPIES-SIDE-4" data-name="STRPIES-SIDE"><polygon class="cls-4" points="589.13 545.84 571.45 528.16 553.77 545.84 589.13 545.84"/></g><g id="STRPIES-SIDE-5" data-name="STRPIES-SIDE"><polygon class="cls-4" points="758.68 546 741 528.32 723.32 546 758.68 546"/></g><g id="STRPIES-SIDE-6" data-name="STRPIES-SIDE"><polygon class="cls-4" points="345.81 454.31 357.14 432.02 334.85 420.69 345.81 454.31"/></g><path class="cls-5" d="M472.33,582c-67.95-3.93-106.5-5.5-134.5-59.5S299.33,353,299.33,353s-.74,94.83,0,103c2.91,32,5.37,59.06,23,88,4.86,8,16.66,26.91,39,42,27.33,18.46,62.5,24.5,62.5,24.5l351.5.5V582l-210.7-.07Z"/></g></svg>