<svg xmlns="http://www.w3.org/2000/svg" viewBox="0 0 741 900"><defs><style>.cls-1{fill:#eecea2;}.cls-1,.cls-2,.cls-4,.cls-5,.cls-7,.cls-8{stroke:#000;stroke-miterlimit:10;}.cls-1,.cls-4,.cls-5,.cls-7{stroke-width:4px;}.cls-3{fill:#fff;}.cls-4{fill:#e74b3c;}.cls-5{fill:#619f87;}.cls-6{fill:#f24b6a;}.cls-8{stroke-width:0.5px;}</style></defs><title>Artboard 3</title><g id="SNAKE-EATING"><path id="TORSO-2" data-name="TORSO" class="cls-1" d="M-4.39,611l80.59-3.18,235.41-29.77s-39.4-14.08-62.72-54.79c-18.11-31.59-9.58-59.38-29.78-69.87-12.26-6.36-29.91-3.64-40.49,5.17-17.65,14.69-4.26,36.88-19.45,65.1-14.89,27.66-44.89,38.18-57.17,42.48-21.11,7.4-80.19,0-80.19,0l-26.2-1.59Z"/><g id="TEETH"><path class="cls-2" d="M465.61,393.66,337.76,497.88l120.88,89.89-1.94,22.86s-47.55-1.82-71.29-12.4c-29.09-13-54.53-33.11-104.22-72.84-18.62-14.9-25.23-20.78-25.57-29.83-.59-15.91,18.93-20.57,62.77-56.95,31.26-25.95,40.56-39.54,67-47.66a136.36,136.36,0,0,1,31.39-5.42C420.33,385.29,465.61,393.66,465.61,393.66Z"/><path class="cls-3" d="M384.78,400c-2.27.8-2.3,4-2,6.33a138.23,138.23,0,0,1-.76,43.63c2.16-1.1,3.09-3.64,3.84-5.95q8.7-26.93,19.69-53a21.76,21.76,0,0,0-21.34,8.14"/><path d="M384.35,398.4c-6.41,2.54-2.79,13.26-2.53,18.31a144.93,144.93,0,0,1-2.15,32.55c-.35,1.95,1.67,4.09,3.64,2.79,3.34-2.21,4.38-5.55,5.63-9.2,1.94-5.65,4-11.27,6-16.9q6.19-17.32,13.34-34.27a2.79,2.79,0,0,0-1.93-3.41A24.62,24.62,0,0,0,382,396.78c-2.62,3.24,2,7.88,4.61,4.6,4.42-5.57,11.11-8.76,18.3-7.77l-1.93-3.4q-6,14.34-11.38,29-2.6,7.08-4.95,14.25c-1.26,3.87-2.21,11.93-5.79,14.36l3.64,2.79a139.73,139.73,0,0,0,1.95-24.34q-.06-6.19-.67-12.37c-.35-3.42-2.72-10.23.2-12.76,1.18-1-.08-3.3-1.58-2.7Z"/><path class="cls-3" d="M445.64,390.06a48.57,48.57,0,0,0-.74,11.67c.18,3.12.67,6.22,1,9.33A114.32,114.32,0,0,1,444.1,448c8.18-17.42,19.39-34.25,20.74-53.45a3.21,3.21,0,0,0-.21-1.77c-.51-1-1.81-1.22-2.92-1.3a65.06,65.06,0,0,0-17.56,1.13"/><path d="M443.51,389.48c-2.32,9.4-.19,18.59.29,28.06a120.13,120.13,0,0,1-2.34,29.73c-.57,2.84,3.65,5.13,5,2.12,6.6-14.63,15.59-28.42,19.41-44.16,1-4.09,3.95-12.68-.61-15.57-2.35-1.5-6.2-1.21-8.85-1.28a65.87,65.87,0,0,0-13.15,1c-4.16.76-2.42,7.2,1.76,6.38a80,80,0,0,1,9.62-1.45,34.64,34.64,0,0,1,5.29-.15c1.9.15,1.51-.21,2.11,1.2.8,1.88-1.06,7.14-1.58,9.21a83.13,83.13,0,0,1-2.75,8.81c-4.26,11.52-10.52,22.23-16,33.2l5,2.11a115.82,115.82,0,0,0,2.53-28.41c-.38-10.24-2.31-20-1.44-30.26.21-2.49-3.74-3-4.33-.58Z"/><path class="cls-3" d="M379.4,577.13l-.48-39.83c4,2.54,6.17,7.14,8.1,11.49l11.7,26.29c1.43,3.23,2.89,6.54,3.14,10.07a77.48,77.48,0,0,1-11.06-1c-5-.82-10.57-2.67-12.55-7.33-.09-.23-.16-.52,0-.67s.44.3.2.3"/><path d="M381.65,577.13c0-13.28-.12-26.55-.24-39.83l-3.74,2.15c6.11,4.37,8.45,13.8,11.24,20.38,3.36,7.94,8.93,16.7,10,25.32l3-3c-4.47-.18-19.87-.17-21.09-6.72l-2.49,3.26.27,0L376,576.23l0,.2c-.14,2.49,3.41,3.27,4.59,1.24l.1-.18a2.56,2.56,0,0,0-.9-3.43l-.23-.15a2.59,2.59,0,0,0-3.78,1.54c-1.27,4.37,4,8.1,7.35,9.63,5.75,2.6,12.5,2.91,18.71,3,1.46,0,3.19-1.4,3-3-1.3-9.8-7-19.26-11.13-28.12-3.56-7.63-6.39-16.81-13.53-21.87-1.57-1.11-3.77.38-3.74,2.14.19,13.28.35,26.55.71,39.83.07,2.89,4.49,2.9,4.5,0Z"/><path class="cls-3" d="M437.39,590.55c-.77.19-1.22-.84-1.32-1.62-2.34-16.91.38-34.28-2.7-51.06,5.3,4.53,8.6,10.9,11.78,17.11l6.43,12.57c1.74,3.41,3.51,6.87,4.3,10.62.66,3.15.52,6.7-1.46,9.24s-5.62,3.56-8.9,3.27-6.36-1.65-9.37-3"/><path d="M438.35,588.91c-1.06-.73-.74-6.31-.8-7.52-.09-1.9-.14-3.79-.18-5.69-.1-4.43,0-8.86,0-13.3a149.35,149.35,0,0,0-1.62-25.18l-4.08,2.37c7.83,7.14,11.61,17.77,16.25,27,2.27,4.54,5.59,9.72,5.31,15-.48,8.82-10.42,5.69-15.49,3.37-3.63-1.65-6.75,3.79-3.12,5.35,6.06,2.59,13.07,5.27,19.28,1.5,5.32-3.23,6.08-9.7,4.68-15.27-1.89-7.54-6.62-14.62-10.25-21.41s-7.35-13.76-13.21-19a2.46,2.46,0,0,0-4.07,2.37c1.87,10.73,1.56,21.59,1.68,32.44a136.81,136.81,0,0,0,.88,15.14c.35,2.87.34,5.33,3.31,6.28,2.14.68,3.16-2.31,1.46-3.47Z"/></g><g id="Body-2"><path class="cls-4" d="M36.58,449.66s43.09,0,90.68-4.87c23.23-15,58.45-37.84,82.81-52.08S294,369.1,312.36,366.1s63.7-10.49,76.81-13.49,75.32-.74,75.32-.74L465.61,392l-70.82,1.5-60,45-64.45,54.71L395.17,586.8,457,589.05s1.88,15.36-7.12,19.48-52.45,3.38-60.7,3S285.76,571.44,243.79,557.2,190.58,523.85,189.08,510s-2.24-43.09-2.24-43.09-3.77,17.13-3.75,32.22c0,30.46,27.73,62.2,27.73,62.2L63.94,578.93l-73.44,3V449.66Z"/><path class="cls-4" d="M36.58,449.66s43.09,0,90.68-4.87c23.23-15,58.45-37.84,82.81-52.08S294,369.1,312.36,366.1s63.7-10.49,76.81-13.49,75.32-.74,75.32-.74L465.61,392l-70.82,1.5-60,45-64.45,54.71L395.17,586.8,457,589.05s1.88,15.36-7.12,19.48-52.45,3.38-60.7,3S285.76,571.44,243.79,557.2,190.58,523.85,189.08,510s-2.24-43.09-2.24-43.09-3.77,17.13-3.75,32.22c0,30.46,27.73,62.2,27.73,62.2L63.94,578.93l-73.44,3V449.66Z"/><polygon class="cls-5" points="18.34 534.32 0.13 515.58 -20.94 534.21 18.34 534.32"/></g><g id="TONGUE"><path class="cls-6" d="M330.93,497.92a.88.88,0,0,0-.31,1.05c5.29,12.58,23,19.6,39.53,19.88,16.83.28,26.49-1.69,31.14-3s32.5-5.49,60.78-8c21.61-1.94,34.47,18.07,40,29.52a.89.89,0,0,0,1.67-.55c-1.4-7.53-3.32-18.35-3.94-24.14a.89.89,0,0,1,1.39-.82c6,4.22,20.52,15.38,26.65,20.12a.88.88,0,0,0,1.34-1.07c-2.15-4.61-6.31-13-10.13-17.58-5.45-6.56-10.59-11.56-19-15.62-11.87-5.72-40.24-6.2-54-5.48-32.5,1.68-39.61,9.73-69.9,12.75-5.58.55-11.49.58-16.53-1.42-4.33-1.73-7.6-4.8-11.6-7s-9.54-3.42-13.49-1.21l-.09.06Z"/><path d="M330.37,497.59c-2.53,3.52,6.47,10.94,8.83,12.65,6.78,5,15.16,7.63,23.4,8.77,14.33,2,28.17-.38,42.14-3,8.4-1.58,16.92-2.68,25.4-3.76,11.4-1.45,23.26-3.59,34.76-3.61,9.24,0,17.48,4.44,23.87,10.88,5.27,5.31,8,11.61,12.17,17.56.72,1,1.64,2.5,3.1,1.28,1.67-1.39-.2-5.92-.48-7.49-.85-4.73-1.72-9.47-2.4-14.23-.46-3.24-.61-3.75,1.82-2.44a40.34,40.34,0,0,1,4.63,3.42q5.63,4.18,11.15,8.49c2.48,1.93,5.54,5.47,8.45,6.55,5.57,2.06.82-6.22,0-7.75-7.56-14.69-19.36-27.32-36-31-15.8-3.49-32.83-3.63-48.92-2.5-19,1.32-36.55,7.91-55.19,11.05-6.09,1-12.43,2-18.62,1.75-7.51-.34-12.36-4-18.53-7.64-3.78-2.26-8.41-4-12.89-3.13-3.16.64-3.86,2.52-6.29,4.24-.28.2,0,.65.26.46,8.35-5.93,16.08-.73,23.49,4,8.22,5.2,17.39,4.59,26.69,3.4,15.13-1.95,29.42-7.11,44.37-9.86,16.68-3.07,34.09-3.26,51-1.82,7.66.66,15.93,1.49,23,4.74a52.87,52.87,0,0,1,21.77,19.6c.83,1.31,7.41,11.12,6.59,12.27-.42.59-7.74-5.39-8.67-6.09-3.78-2.85-7.54-5.71-11.33-8.54-2.16-1.62-4.91-4.67-7.71-4.79a.8.8,0,0,0-.72.42c-1,1.92-.2,4.24.11,6.32.62,4.28,1.32,8.56,2.07,12.82.15.82,1.34,4.31.94,5.16s-1.07-1.32-1.44-2a75.6,75.6,0,0,0-4.7-7.64c-6.84-9.73-16.58-18.07-28.87-19.11-9.62-.81-20,1.41-29.55,2.56-8,1-16,2-24,3.26-10.16,1.55-20.07,4.29-30.36,5-10,.67-20.12.71-29.79-2.1a46.12,46.12,0,0,1-13.47-6.22c-1.71-1.19-10.88-8.52-9-11.21C332,497.57,330.85,496.93,330.37,497.59Z"/></g><g id="NOSE"><path class="cls-7" d="M464.06,379.15s-5.68-2.13-5.5-6.08c.17-3.52,5.21-5.49,5.21-5.49Z"/><path class="cls-7" d="M422.41,372.5c.28,3.69-3.34,6.65-6.36,7.52-5.53,1.59-12.44-6.95-12.44-6.95s6.68-8.2,12.15-6.94C418.42,366.75,422.14,369,422.41,372.5Z"/></g><g id="EYES"><path class="cls-3" d="M330.12,387l-45.2-43.77s-25.08,31.72-23.21,51.26a35.23,35.23,0,0,0,3.47,12.89c4.5,8.63,14,14.1,23.76,14.63s19.38-3.58,26.53-10.18,11.89-15.53,14.43-24.93"/><path d="M330.84,386.23c-14.61-15-29.64-29.69-44.68-44.29a1.76,1.76,0,0,0-2.48,0c-9.76,12.36-19.49,27.18-22.95,42.72-2.4,10.77.18,23.13,8.43,30.84,9.28,8.68,22.88,10.34,34.5,5.82,14.59-5.66,24-19.29,28-34a1.81,1.81,0,0,0-3.48-1c-4.83,16.23-16.31,31.74-34.38,33.62-16.88,1.75-30.47-11.19-30.35-28,.09-11,6.13-21.92,11.61-31.12a159.38,159.38,0,0,1,11.12-16.45h-2.48c15.08,14.57,30.22,29.14,45.73,43.25a1,1,0,0,0,1.43-1.43Z"/><path d="M334.33,353.53c-1.12,4.34-2.13,8.71-3.22,13.06l2.17-.29c-8.81-11.51-17.42-23.3-26.72-34.42-.92-1.12-2.89.37-2,1.56,8.52,11.73,17.85,22.95,26.88,34.3a1.19,1.19,0,0,0,2-.52c1-4.37,2.11-8.72,3.1-13.1a1.13,1.13,0,0,0-2.17-.59Z"/><circle class="cls-8" cx="311.16" cy="389.63" r="4.02"/></g></g></svg>