<svg xmlns="http://www.w3.org/2000/svg" viewBox="0 0 741 900"><defs><style>.cls-1{fill:#eecea2;}.cls-1,.cls-3,.cls-5,.cls-6,.cls-7,.cls-8{stroke:#000;stroke-miterlimit:10;}.cls-1,.cls-3,.cls-6,.cls-7,.cls-8{stroke-width:4px;}.cls-2{fill:#f24b6a;}.cls-3{fill:#e74b3c;}.cls-4{fill:#fff;}.cls-7{fill:none;}.cls-8{fill:#619f87;}</style></defs><title>Artboard 9</title><g id="SNAKE"><path class="cls-1" d="M-8,610.77l91.57-3.21L297,567s-15-3.83-38.63-45c-18.33-32-9.7-60.12-30.14-70.73-12.41-6.44-30.28-3.69-41,5.23-17.86,14.87-4.31,37.34-19.69,65.9-15.07,28-45.43,38.64-57.86,43-21.37,7.49-81.17,0-81.17,0L-8,563.76Z"/><path class="cls-2" d="M474.51,520l-.8.85h0a.77.77,0,0,0,.35,1c2.87,1.65,14,7.78,22,7.89a104.15,104.15,0,0,0,20.56-1.77c2.58-.58,14.75-2.11,30.45-3.27,12-.89,19.13,8.3,22.2,13.56.25.43,1,.22.92-.25-.77-3.46-1.84-8.44-2.18-11.1-.05-.34.42-.57.76-.37,3.33,1.93,11.39,7.07,14.8,9.24.41.26,1-.1.74-.49a42.31,42.31,0,0,0-5.62-8.07,29.24,29.24,0,0,0-10.54-7.18c-6.58-2.62-15.34-2-23-1.7-18,.78-19.11,2.83-35.92,4.22-3.09.25-12.94,1.5-15.74.58-1.87-.62-5.13-1-6.31-1.67-.37-.21-3.64-1.2-3.83-1.32l-3.13-1.74a1.88,1.88,0,0,1-.71-.18l-.41-.18a3.05,3.05,0,0,0-1.84,0,3.21,3.21,0,0,0-1.29.65l-.86.71A6.77,6.77,0,0,0,474.51,520Z"/><path d="M474.07,519.6c-1,1-1.61,2-.08,3,1.26.79,2.64,1.46,4,2.13a59.92,59.92,0,0,0,13,5c5.23,1.23,10.81.73,16.11.25,3.52-.31,7-.86,10.43-1.49,3.28-.6,6.61-.94,9.92-1.31q8.46-.94,17-1.59a28.83,28.83,0,0,1,8.4.16,20.16,20.16,0,0,1,6.24,2.52,28,28,0,0,1,8.42,8.31c.57.85,1.38,3.1,2.74,2.49.82-.37.62-1.13.46-1.85-.29-1.33-.58-2.66-.86-4s-.49-2.41-.71-3.62c-.1-.55-.2-1.11-.29-1.67-.13-.77-.23-.75.43-.36,1.73,1,3.44,2.1,5.15,3.17l5.88,3.71,2.25,1.43c.62.4,1.37,1,2.09.42s.38-1.07.06-1.64c-.59-1.09-1.25-2.14-1.92-3.18a31,31,0,0,0-4.78-5.81,28.65,28.65,0,0,0-13-7.23c-5.63-1.3-11.52-1-17.24-.78-5.21.23-10.42.49-15.6,1.17-3.56.46-7.08,1.13-10.62,1.7-4.5.72-9,1.13-13.57,1.58a89.22,89.22,0,0,1-12,.77,31.4,31.4,0,0,1-5.3-1,43.32,43.32,0,0,1-4.86-1.5,19.57,19.57,0,0,1-3.43-1.44,11,11,0,0,0-3.53-1.54c-1.86-.27-3.43,1-4.67,2.2-.57.57.31,1.45.89.89a8.44,8.44,0,0,1,1.73-1.43,3.71,3.71,0,0,1,3.22,0c1.08.4,2,1.2,3.07,1.7s2.36.75,3.51,1.2a38,38,0,0,0,5.36,1.48,20.49,20.49,0,0,0,4.53.73c1.93,0,3.87-.1,5.79-.25q6-.48,12.05-1.14c7.53-.82,14.93-2.5,22.47-3.19,5.51-.5,11.08-.77,16.62-.83s11,.26,16.06,2.58a28.67,28.67,0,0,1,11.34,9.48c.67,1,1.29,1.94,1.89,2.93a7.58,7.58,0,0,0,.85,1.44l.15.26.07-.24a3.51,3.51,0,0,0-.59-.38l-5.19-3.29q-2.73-1.72-5.47-3.42c-.73-.45-1.46-.9-2.2-1.34-.55-.34-1.24-.93-1.92-.84-1.77.24-.57,3.54-.38,4.57.24,1.22.48,2.44.74,3.66.12.58.25,1.16.37,1.74a7.93,7.93,0,0,0,.45,2c.16.27.09-.22.08-.25a3.68,3.68,0,0,0-.28-.45c-.17-.29-.35-.57-.54-.86-.46-.68-.93-1.36-1.43-2a32,32,0,0,0-3.56-4,21.47,21.47,0,0,0-17.46-6.16q-4.54.35-9.09.75c-4.68.43-9.36.91-14,1.49-6.7.83-13.26,2.21-20,2.59a60.37,60.37,0,0,1-8.4.09,30.36,30.36,0,0,1-6.58-1.45,71.43,71.43,0,0,1-11.69-5.12l-1.59-.88c-.3-.17-.62-.26-.58-.52s.53-.55.65-.67C475.51,519.9,474.63,519,474.07,519.6Z"/><path class="cls-3" d="M223.13,562.22,98.48,579.56c-1.85.22-23.7,1.37-25.56,1.45L-18,581.9V450.15H48.25l91-4.89,78.35-7.45a59.86,59.86,0,0,0,9.4-1.65l67.28-17.5a82.53,82.53,0,0,1,58.94,6.69L386,442.41,397,449a59.4,59.4,0,0,0,9.27,4.46c7.9,3,22.94,8.13,32.33,8l21-.21a18.46,18.46,0,0,1,18.63,17.94l.62,22.12s.39,14.83-7.13,25.36-20,16-37.24,25.2S377.68,573,345.73,574.63c-27.48,1.43-42.73-1.27-73.25-11.14a78.71,78.71,0,0,0-34-3.19Z"/><path class="cls-4" d="M358.87,471.88l-40.82-39.52s-22.65,28.64-21,46.29a31.68,31.68,0,0,0,3.14,11.64c4,7.79,12.67,12.74,21.45,13.21s17.5-3.23,24-9.19,10.74-14,13-22.51"/><path d="M359.58,471.17c-13.14-13.63-26.71-26.87-40.29-40.05a1.76,1.76,0,0,0-2.48,0C305.36,445.62,291,466.61,296.57,486c4,13.84,18.29,21.37,32.14,18.93,16.44-2.91,27.53-17.23,31.7-32.61a1.81,1.81,0,0,0-3.48-1c-4.37,14.52-14.46,28.29-30.59,30.15-15.48,1.78-28.14-10.25-27.5-25.8.39-9.71,5.65-19.25,10.52-27.4a142.45,142.45,0,0,1,9.93-14.68h-2.48c13.62,13.16,27.29,26.31,41.34,39a1,1,0,0,0,1.43-1.43Z"/><path d="M361.49,449.3c-1.28,4.6-2.13,9.33-3.26,14l1.85-.24c-4.29-6.24-8.64-12.44-13-18.63s-8.4-12.52-13.22-18.28c-.9-1.08-2.66.32-1.94,1.5,3.89,6.38,8.62,12.28,13,18.31s8.87,12.11,13.37,18.12c.46.62,1.65.69,1.84-.24.94-4.69,2.17-9.34,3-14.05.18-1.07-1.35-1.55-1.65-.46Z"/><circle class="cls-5" cx="341.75" cy="474.3" r="3.63"/><path class="cls-6" d="M476.08,487s-5.24-2-5.08-5.61c.15-3.25,4.81-5.07,4.81-5.07Z"/><path class="cls-6" d="M455.12,481.68c.19,2.38-2.15,4.29-4.1,4.85-3.56,1-8-4.48-8-4.48s4.3-5.29,7.83-4.48C452.55,478,455,479.39,455.12,481.68Z"/><path class="cls-7" d="M475.31,519.41c-27.87,3.86-68.17,4.71-85.32-1.29"/></g><g id="SNAKE-EATING-BODY"><polygon class="cls-8" points="-34.15 546 0.5 511.35 35.15 546 -34.15 546"/></g></svg>