<svg xmlns="http://www.w3.org/2000/svg" viewBox="0 0 741 900"><defs><style>.cls-1{fill:#1a1a1a;}.cls-1,.cls-3,.cls-5,.cls-6,.cls-7{stroke:#000;stroke-miterlimit:10;}.cls-1,.cls-3{stroke-width:5px;}.cls-2{fill:#f24b6a;}.cls-3{fill:#e74b3c;}.cls-4{fill:#fff;}.cls-6{fill:#619f87;stroke-width:6px;}.cls-7{stroke-width:4px;}</style></defs><title>Artboard 12 copy 4</title><g id="HEAD-EATING"><path id="BODY-2" data-name="BODY" class="cls-1" d="M450.56,900.87c3.25-10.83,7.55-73,8.49-81s12.27-48,12.27-48,29.54-76.56,42.48-126c13.4-51.16,1.55-96.88-2.83-113-8.35-30.76-14.62-27.73-33-73-26.19-64.38-16.78-78.56-39.65-119-11.81-20.88-38.4-67.9-72.68-67-33,.87-56.38,45.7-72.69,77-16.86,32.34-11.69,38-37.76,112-19.05,54.06-23.27,55.21-27.38,80-7.35,44.39-.56,81.4,2.83,99,6.6,34.29,17.61,60,24.55,76,14.2,32.71,21.86,38.63,33,68,10.7,28.15,14.47,99.13,17,115"/><g id="TONGUE"><path class="cls-2" d="M356.3,353.74l2.05,2h0a1.86,1.86,0,0,0,2.53-.85c4-7,18.94-34.11,19.21-53.44.31-22.72-12.58-17-4.31-50s-1-50.11-10.72-66,14-71,21.77-84.1c.61-1,.52-2.5-.61-2.25-8.43,1.89-20.54,26.48-27,27.32-.85.11-.82-.9-.91-1.86-1.24-13.11-1.24-28.11,2.5-36,.5-1.07-.26-2.34-1.2-1.81-5.15,2.9-13.54,19.71-13.54,27.71s2.43,17.62,3,24-1,50,8,58,8,33,3,43-6,39,2,50S361.63,320.15,360,323c-.52.89-2.93,8.86-3.23,9.32L352.52,340a5.13,5.13,0,0,1-.43,1.72c-.13.26-.29.61-.46,1-.55,1.17-.26,3,.1,4.47a8.13,8.13,0,0,0,1.59,3.16l1.72,2.08A14.68,14.68,0,0,0,356.3,353.74Z"/><path d="M354.53,355.51c1.85,1.77,3.79,3.92,6.62,2.42,1.86-1,2.82-3.42,3.79-5.2,2.65-4.83,5.13-9.76,7.39-14.78,5.5-12.16,10.69-25.59,10.23-39.16A38.72,38.72,0,0,0,380.07,286c-.65-1.66-1.4-3.29-2.11-4.92l-.24-.57c.16.39.07.2,0-.06s-.31-.77-.46-1.17c-.3-.78-.56-1.58-.79-2.39a24.68,24.68,0,0,1-.6-2.68c0-.12-.13-.8-.09-.54s-.05-.36-.06-.46c-.06-.56-.1-1.12-.13-1.69a45.37,45.37,0,0,1,.36-8.07c1-8.18,3.66-16.06,4.75-24.24,1.79-13.35.47-26.63-4.83-39.05a113,113,0,0,0-7.41-14.07c-.58-1-1.19-1.89-1.7-2.89-.08-.15-.15-.31-.22-.47.17.38.07.2,0-.06s-.3-.81-.42-1.23a23.52,23.52,0,0,1-.57-2.62c-.11-.63,0,.19,0-.27,0-.22,0-.43-.07-.65,0-.52-.08-1-.1-1.56a57,57,0,0,1,1.25-13.75,152.38,152.38,0,0,1,4.2-16.41,262.85,262.85,0,0,1,11.85-30.93c1.64-3.63,3.36-7.23,5.26-10.73,1.15-2.09,3-4.77,1-7s-5.07-.52-7,.85c-4.28,3.07-7.51,7.48-10.67,11.63s-5.9,8.3-9.59,11.9c-.33.33-.68.64-1,1l-.23.19c-.28.23.34-.24.05,0-.14.11-.29.21-.44.31a8.48,8.48,0,0,1-.93.52c.51-.26.21,0,.06,0,.11,0-1,0-.13,0l1.26.34c.24.12.53,1.34.65.84a2.47,2.47,0,0,0-.06-.76c0-.46-.09-.91-.12-1.37-.1-1.07-.18-2.14-.25-3.22q-.21-3.14-.3-6.27a106.16,106.16,0,0,1,.29-12.1,42.42,42.42,0,0,1,1.87-9.81c.54-1.6,1.53-3.09,1-4.89a3.42,3.42,0,0,0-5.09-2,17.73,17.73,0,0,0-5,5.18,54.05,54.05,0,0,0-4.54,7.74c-2.51,5.14-5.05,11-5.1,16.87-.07,7.87,2.11,15.53,2.93,23.3.31,3,.23,6,.26,8.91a272.47,272.47,0,0,0,1.63,30.89,63.19,63.19,0,0,0,3,14.08,19.52,19.52,0,0,0,2.5,5c1.3,1.75,2.72,2.78,3.73,4.49,2.66,4.48,3.49,10.29,3.69,15.62a56,56,0,0,1-1.78,17.06,46.22,46.22,0,0,1-2.38,6.18,35.83,35.83,0,0,0-1.92,6.67,83,83,0,0,0-1.52,18,66.65,66.65,0,0,0,2.55,18.26,29.08,29.08,0,0,0,3.17,7.14,19.25,19.25,0,0,1,3.27,7.67c.95,5.7-.32,11.76-2.05,17.19-.37,1.16-.77,2.31-1.21,3.45-.09.25-.19.51-.3.76,0,.09-.27.66-.16.41s-.14.31-.19.43-.17.37-.25.56a41.62,41.62,0,0,0-1.78,4.18c-.74,2.18-1.43,4.38-2.17,6.56-.23.65-.12.09,0,0-.13.1-.22.4-.3.54l-1.42,2.57c-.83,1.5-1.74,3-2.5,4.51a6.17,6.17,0,0,0-.38,1.4c0,.15-.22.78-.05.33a13.62,13.62,0,0,0-1,2.67,11.76,11.76,0,0,0,.95,6.3,20.88,20.88,0,0,0,4.64,6.11c2.3,2.26,5.83-1.27,3.53-3.53-1.33-1.32-3.05-3.05-3.72-4.84a5.44,5.44,0,0,1-.23-3.9,6.44,6.44,0,0,0,.69-1.81c.06-.78-.21.1,0-.47,1.18-2.87,3.32-5.33,4.44-8.23.69-1.79,1.22-3.64,1.82-5.46.29-.87.57-1.73.88-2.59.06-.16.14-.33.19-.49.14-.5-.27.5-.07.15.12-.2.23-.4.33-.61a53,53,0,0,0,4.09-11.41c1.35-5.5,2-11.34.84-16.93a20.48,20.48,0,0,0-3.27-7.52,21.05,21.05,0,0,1-2.69-5.47,56.13,56.13,0,0,1-2.61-15.27,83.83,83.83,0,0,1,.68-16,50.51,50.51,0,0,1,1.41-6.79,29,29,0,0,1,1.84-4.77,47,47,0,0,0,3.34-14.47,60.82,60.82,0,0,0-.61-16.5c-.85-4.69-2.46-9.57-5.74-13.15-.51-.56-1.09-1.06-1.6-1.62s.16.33-.2-.27c-.22-.35-.45-.68-.65-1s-.36-.67-.52-1l-.24-.54c-.28-.62.18.49-.07-.16-.32-.83-.61-1.66-.87-2.51A72.24,72.24,0,0,1,353.2,176a274.36,274.36,0,0,1-1.42-27.79c0-2.93,0-5.86-.15-8.78-.25-5.63-1.66-11.19-2.42-16.75a45.26,45.26,0,0,1-.59-9.51,21.58,21.58,0,0,1,.53-2.91c.31-1.25.69-2.49,1.11-3.71a55,55,0,0,1,7.26-14.26,18,18,0,0,1,1.81-2.19c.31-.32.63-.63,1-.92s0,.31.11-.08l.16-.1c.42-.25.16-.22-.79.06l-1.11-.64c-.41-.37.08-1.33-.34-.52a13.81,13.81,0,0,0-.55,1.33c-.3.79-.55,1.59-.78,2.39a44,44,0,0,0-1.09,5.32,88.87,88.87,0,0,0-.85,12.52c0,4.48.21,9,.6,13.42.16,1.91,0,4.47,1.9,5.56a4.36,4.36,0,0,0,4.11-.33,17.59,17.59,0,0,0,4.86-4.12c1.9-2.11,3.62-4.37,5.33-6.63,3.42-4.51,6.68-9.28,10.81-13.19.42-.4.85-.78,1.3-1.15s-.14.08.31-.24c.23-.17.47-.34.71-.49a11.24,11.24,0,0,1,1.23-.67c.25-.13-.16.06-.18.07s.34-.11.34-.12.23,0,.25-.08-2-1.45-1.95-1.48c-.38.24-.76,1.3-1,1.7-.42.77-.83,1.55-1.24,2.32-2.15,4.17-4.11,8.43-6,12.73A251.92,251.92,0,0,0,364,151.34a114.75,114.75,0,0,0-3.41,17.12,38.18,38.18,0,0,0,.48,13.73,21,21,0,0,0,2.56,5.64c1.45,2.39,2.86,4.79,4.19,7.24a72.91,72.91,0,0,1,6.56,16.09,66.47,66.47,0,0,1,2,20.55,89.58,89.58,0,0,1-1.57,12.53c-.89,4.61-2.19,9.13-3.05,13.75-1.09,5.87-1.77,11.91-.69,17.83.67,3.69,2.28,7,3.76,10.45.18.41-.17-.43.07.16l.24.6q.27.68.51,1.35c.32.9.61,1.82.85,2.75a29.76,29.76,0,0,1,1,6.9,59.41,59.41,0,0,1-2.91,20c-3.58,12-9,23.44-15.18,34.3a9.9,9.9,0,0,0-.57,1s-.2.3-.2.3c-.09-.18,1.26-.06,1.39.24-.29-.67-1.46-1.39-2-1.9C355.74,349.76,352.19,353.29,354.53,355.51Z"/></g><path id="BODY-3" data-name="BODY" class="cls-3" d="M455.06,901.33c3.44-9.8,8-66.05,9-73.29s13-43.43,13-43.43,31.28-69.28,45-114c14.2-46.29,11.64-108.43,7-123-8.85-27.83-5.49-4.32-25-45.28-27.74-58.26-37.77-71.09-62-107.68-12.51-18.89-40.68-61.43-77-60.62-35,.79-59.72,41.35-77,69.67-17.85,29.26-32.38,34.38-60,101.34-20.17,48.91-14.65,29.18-19,51.62-7.79,40.16,9.41,94.41,13,110.34,7,31,18.65,54.32,26,68.77,15.05,29.6,23.17,35,35,61.53,11.34,25.46,15.34,89.69,18,104.05"/><g id="EYE"><path class="cls-4" d="M395.78,571.4l53,81.33s48.6-39.1,52.49-69.14c.88-6.84.94-13.89-.81-20.56-3.8-14.52-16.27-26-30.7-30.15s-30.38-1.28-43.39,6.2-23.22,19.28-30.26,32.54"/><path d="M394,572.43c14.44,24.24,29.72,48,45,71.75,2.22,3.44,4.44,6.89,6.67,10.32a3.56,3.56,0,0,0,5.5.71c18.52-14.9,37.53-33.48,48.23-54.92,7.85-15.73,8.82-35.85-1.18-50.9-11.15-16.8-31.33-24.29-50.94-21.44-24,3.48-43.43,20.85-54.37,41.85-2.14,4.1,3.94,7.71,6.23,3.64,9.68-17.21,23.87-32,43.56-37.08,18.29-4.68,39,.95,49.54,17.36,18.68,29-8,60.11-27.62,79.76a239.81,239.81,0,0,1-18.41,16.78l5.5.71c-15.45-23.66-31-47.33-47.14-70.51q-3.53-5.06-7.09-10.08c-1.49-2.08-4.86-.23-3.5,2Z"/><path d="M383.4,605.05c2.4-4.45,4.4-9.1,6.7-13.6l-6.42-.84c3,7.68,6.06,15.33,9.14,23,3,7.33,5.54,15,9.35,21.9,2.1,3.8,8.31,1.24,7-3-2.27-7.57-5.94-14.76-9.1-22-3.3-7.55-6.6-15.11-10-22.61-1-2.27-5.05-2.32-6.07,0-2.15,4.9-4.6,9.67-6.64,14.62-1.43,3.46,4.27,5.77,6,2.53Z"/><circle class="cls-5" cx="425.21" cy="573.88" r="6.2"/></g><g id="EYE-2" data-name="EYE"><path class="cls-4" d="M343.62,571.4l-53,81.33s-48.6-39.1-52.48-69.14c-.89-6.84-.95-13.89.8-20.56,3.8-14.52,16.28-26,30.71-30.15s30.37-1.28,43.39,6.2,23.21,19.28,30.25,32.54"/><path d="M341.87,570.38c-16.36,23-32,46.69-47.5,70.31-2.24,3.42-4.5,6.85-6.74,10.28l5.5-.71c-15.77-12.77-31-27.92-42-45-8.62-13.38-13.55-29.82-7.26-45.37,7.25-18,27-27,45.57-24.87,22.92,2.57,39.94,19.18,50.77,38.43,2.29,4.06,8.38.46,6.24-3.64-9.63-18.48-25.84-34.34-46.22-40.13-19.44-5.52-41.35-1.16-55,14.39C233,558,230.78,578.45,237.73,595.39c6,14.5,16.52,27,27.24,38.25a241.62,241.62,0,0,0,23.21,21.57,3.57,3.57,0,0,0,5.5-.71C309,630.83,324.37,607.06,339,583q3.19-5.25,6.32-10.52c1.36-2.28-2-4.14-3.49-2Z"/><path d="M362,602.52c-2-4.95-4.49-9.72-6.64-14.62-1-2.32-5-2.27-6.06,0-3.41,7.5-6.71,15.06-10,22.61-3.16,7.24-6.83,14.43-9.11,22-1.25,4.17,4.92,6.81,7,3,3.82-6.92,6.39-14.57,9.35-21.9,3.09-7.64,6.17-15.29,9.14-23l-6.41.84c2.29,4.5,4.3,9.15,6.69,13.6,1.73,3.21,7.46,1,6-2.53Z"/><circle class="cls-5" cx="314.19" cy="573.88" r="6.2"/></g><g id="STRPIES-SIDE"><polyline class="cls-6" points="298.56 882.15 317.24 899.83 302.56 913.83"/><polyline class="cls-6" points="451.56 914.51 437.88 899.83 458.56 881.15"/></g><path class="cls-7" d="M348.61,403.73c.61,7.91-7.16,14.24-13.62,16.1C323.16,423.24,308.37,405,308.37,405s14.29-17.56,26-14.86C340.07,391.43,348,396.15,348.61,403.73Z"/><path class="cls-7" d="M388.4,403.73c-.61,7.91,7.16,14.24,13.62,16.1,11.83,3.41,26.62-14.86,26.62-14.86s-14.29-17.56-26-14.86C396.94,391.43,389,396.15,388.4,403.73Z"/><path class="cls-4" d="M324.56,302.93a1.21,1.21,0,0,0-.95,1.18c.74,7.95,6.24,14.16,6.27,22.34,4.12-3.91,6.09-7.82,8-11.62l3.79-7.69c1-2.09,2.06-4.21,2.15-6.07a3,3,0,0,0-2.94-3.3c-2.32-.31-5.8.65-8.79,2a59.46,59.46,0,0,0-8.15,4.81"/><path d="M324.08,302.11c-2.72,1.5-1.13,5.23-.38,7.62,1.77,5.67,4.72,10.65,5,16.72a1.21,1.21,0,0,0,2,.85c4.15-4.14,6.74-8.95,9.38-14.12,1.74-3.41,6.11-9.23,5-13.41-2.41-9.26-18.22,1-22,3.5-1.67,1.08-.09,3.79,1.56,2.67a52.61,52.61,0,0,1,8.14-4.84c1.33-.6,5.05-2.32,6.77-1.89,4.79,1.21,1.47,5.84.47,8-3.07,6.58-5.85,13.16-11,18.39l2,.85a33,33,0,0,0-2.65-10.85c-.77-1.93-5.29-10.19-3.19-12,.84-.72-.23-2-1.15-1.49Z"/><path class="cls-4" d="M412.83,302.93a1.21,1.21,0,0,1,.95,1.18c-.74,7.95-6.24,14.16-6.27,22.34-4.12-3.91-6.09-7.82-8-11.62l-3.79-7.69c-1-2.09-2.06-4.21-2.15-6.07a3,3,0,0,1,2.94-3.3c2.32-.31,5.8.65,8.79,2a59.46,59.46,0,0,1,8.15,4.81"/><path d="M412.16,303.6c2.1,1.81-2.42,10.07-3.19,12a33,33,0,0,0-2.65,10.85l2-.85c-5.18-5.23-8-11.81-11-18.39-1.31-2.81-2.82-4.13-.82-6.54s4.18-1.07,6.7-.1a47.08,47.08,0,0,1,9.5,5.37c1.64,1.12,3.23-1.59,1.56-2.67-3.69-2.41-19.74-12.81-22-3.5-1,4.05,2.95,9.34,4.64,12.65,2.77,5.43,5.41,10.53,9.77,14.88a1.21,1.21,0,0,0,2-.85c.26-6.06,3.22-11.05,5-16.72.75-2.41,2.35-6.11-.38-7.62-.91-.5-2,.77-1.15,1.49Z"/></g></svg>