<svg xmlns="http://www.w3.org/2000/svg" viewBox="0 0 741 900"><defs><style>.cls-1{fill:#f24b6a;}.cls-2{fill:#e74b3c;stroke-width:5px;}.cls-2,.cls-4,.cls-5,.cls-6{stroke:#000;stroke-miterlimit:10;}.cls-3{fill:#fff;}.cls-5{fill:#619f87;stroke-width:6px;}.cls-6{stroke-width:4px;}</style></defs><title>Artboard 12</title><g id="HEAD"><g id="TONGUE-2" data-name="TONGUE"><path class="cls-1" d="M358.74,308.91l2.05,2h0a1.86,1.86,0,0,0,2.53-.85c4-7,18.94-34.11,19.2-53.44.32-22.72-12.57-17-4.3-50s-1-50.11-10.72-66,14-71,21.77-84.1c.61-1,.52-2.5-.61-2.25-8.43,1.89-20.54,26.48-27,27.32-.84.11-.81-.9-.9-1.86-1.24-13.11-1.24-28.11,2.5-36,.5-1.07-.26-2.34-1.2-1.81-5.15,2.9-13.54,19.71-13.54,27.71s2.43,17.62,3,24-1,50,8,58,8,33,3,43-6,39,2,50-.43,30.82-2.09,33.69c-.52.89-2.93,8.86-3.23,9.32L355,295.14a5.13,5.13,0,0,1-.43,1.72c-.13.26-.29.61-.47,1-.54,1.17-.25,3,.11,4.47a8.13,8.13,0,0,0,1.59,3.16l1.72,2.08A13.42,13.42,0,0,0,358.74,308.91Z"/><path d="M357,310.68c1.85,1.77,3.79,3.92,6.62,2.42,1.86-1,2.82-3.42,3.79-5.2,2.65-4.83,5.13-9.76,7.39-14.78C380.26,281,385.46,267.53,385,254a38.48,38.48,0,0,0-2.5-12.82c-.65-1.66-1.39-3.29-2.1-4.92-.08-.19-.16-.38-.25-.57.17.39.08.2,0-.06s-.31-.77-.46-1.17c-.3-.78-.56-1.58-.79-2.39a27.33,27.33,0,0,1-.61-2.68c0-.12-.12-.8-.08-.54s-.05-.36-.06-.46c-.06-.56-.1-1.12-.13-1.69a44.45,44.45,0,0,1,.36-8.07c1-8.18,3.66-16.06,4.75-24.24,1.79-13.35.46-26.63-4.83-39a113,113,0,0,0-7.41-14.07c-.58-1-1.19-1.89-1.7-2.89-.08-.15-.15-.31-.23-.47.18.38.08.2,0-.06-.14-.41-.29-.81-.41-1.23a23.52,23.52,0,0,1-.57-2.62c-.11-.63,0,.19,0-.27,0-.22,0-.43-.07-.65-.05-.52-.08-1-.11-1.56A57.5,57.5,0,0,1,369,117.73a152.38,152.38,0,0,1,4.2-16.41A262.85,262.85,0,0,1,385,70.39c1.64-3.63,3.36-7.23,5.26-10.73,1.14-2.09,3-4.77,1-7s-5.07-.52-7,.84C380,56.6,376.77,61,373.61,65.16s-5.91,8.3-9.59,11.9c-.33.33-.68.64-1,1l-.23.19c-.28.23.34-.24.05,0l-.44.31a8.48,8.48,0,0,1-.93.52c.51-.26.21,0,.06,0,.11,0-1,0-.13,0l1.26.34c.24.12.53,1.34.65.84a2.47,2.47,0,0,0-.06-.76c-.05-.46-.09-.91-.13-1.37-.09-1.07-.17-2.14-.24-3.22-.14-2.09-.25-4.18-.3-6.27a106.16,106.16,0,0,1,.29-12.1,42.42,42.42,0,0,1,1.87-9.81c.54-1.6,1.53-3.09,1-4.89a3.42,3.42,0,0,0-5.09-2,17.73,17.73,0,0,0-5,5.18,53.14,53.14,0,0,0-4.54,7.74c-2.51,5.14-5.05,11-5.1,16.87-.07,7.87,2.11,15.53,2.93,23.3.31,3,.23,6,.26,8.91a272.47,272.47,0,0,0,1.63,30.89,63.19,63.19,0,0,0,3,14.08,19.52,19.52,0,0,0,2.5,4.95c1.3,1.75,2.72,2.78,3.73,4.49,2.66,4.48,3.49,10.29,3.69,15.62A56,56,0,0,1,362,188.8a46.22,46.22,0,0,1-2.38,6.18,36.64,36.64,0,0,0-1.93,6.67,83.61,83.61,0,0,0-1.51,18,66.52,66.52,0,0,0,2.55,18.25,28.62,28.62,0,0,0,3.17,7.15,19.25,19.25,0,0,1,3.27,7.67c.95,5.7-.33,11.75-2.05,17.19-.37,1.16-.77,2.31-1.21,3.45l-.3.76c0,.09-.27.66-.16.41s-.14.31-.19.43-.17.37-.25.56a39.43,39.43,0,0,0-1.78,4.18c-.74,2.18-1.43,4.38-2.18,6.56-.22.65-.11.09,0,0a1.78,1.78,0,0,0-.3.54l-1.42,2.57c-.83,1.5-1.74,3-2.5,4.51a6.17,6.17,0,0,0-.38,1.4c0,.15-.22.78-.05.33a13,13,0,0,0-1,2.67,11.76,11.76,0,0,0,.95,6.3,20.88,20.88,0,0,0,4.64,6.11c2.29,2.26,5.83-1.27,3.53-3.53-1.34-1.32-3.05-3-3.72-4.84a5.44,5.44,0,0,1-.23-3.9,6.44,6.44,0,0,0,.69-1.81c.05-.78-.21.1,0-.47,1.18-2.87,3.32-5.33,4.44-8.23.69-1.79,1.22-3.64,1.82-5.46.28-.87.57-1.73.88-2.59a4.84,4.84,0,0,0,.18-.49c.15-.5-.26.5-.06.15.12-.2.23-.4.33-.61A53,53,0,0,0,369,267.49c1.35-5.5,2-11.34.83-16.93a20.3,20.3,0,0,0-3.26-7.52,20.78,20.78,0,0,1-2.7-5.47,55.74,55.74,0,0,1-2.6-15.27,83,83,0,0,1,.68-16,52.08,52.08,0,0,1,1.4-6.79,29.05,29.05,0,0,1,1.85-4.77,47.29,47.29,0,0,0,3.34-14.47,60.82,60.82,0,0,0-.61-16.5c-.85-4.69-2.46-9.57-5.74-13.15-.51-.56-1.09-1.06-1.61-1.62s.17.33-.2-.27c-.21-.35-.44-.68-.64-1s-.36-.67-.52-1l-.25-.54c-.27-.62.19.49-.06-.16-.32-.83-.61-1.66-.87-2.51a72.24,72.24,0,0,1-2.35-12.31,277.31,277.31,0,0,1-1.43-27.79c0-2.93,0-5.86-.15-8.78-.24-5.63-1.66-11.19-2.42-16.75a45.93,45.93,0,0,1-.58-9.51,21.58,21.58,0,0,1,.53-2.91c.31-1.26.68-2.49,1.1-3.71A55.6,55.6,0,0,1,360,47.42a19.16,19.16,0,0,1,1.82-2.19c.31-.32.63-.63,1-.92s0,.31.11-.08l.15-.1c.43-.25.17-.22-.79.06l-1.1-.64c-.42-.37.07-1.33-.34-.52a13.81,13.81,0,0,0-.55,1.33c-.3.79-.55,1.59-.78,2.39a42.17,42.17,0,0,0-1.09,5.32,88.87,88.87,0,0,0-.85,12.52c0,4.48.21,9,.59,13.42.17,1.91,0,4.47,1.91,5.56a4.34,4.34,0,0,0,4.1-.33A17.49,17.49,0,0,0,369,79.12c1.89-2.11,3.61-4.37,5.33-6.63C377.72,68,381,63.21,385.11,59.3c.42-.4.85-.78,1.3-1.15s-.15.08.31-.24c.23-.17.47-.34.71-.49a12.09,12.09,0,0,1,1.22-.67c.26-.13-.15.06-.17.07l.34-.12s.22-.05.25-.08-2-1.45-1.95-1.48c-.39.24-.76,1.3-1,1.7-.43.77-.84,1.55-1.24,2.32-2.15,4.17-4.11,8.43-6,12.73a251.92,251.92,0,0,0-12.45,34.62,113.53,113.53,0,0,0-3.42,17.12,38.41,38.41,0,0,0,.49,13.73A21,21,0,0,0,366.1,143c1.44,2.39,2.86,4.79,4.19,7.24a72.91,72.91,0,0,1,6.56,16.09,66.47,66.47,0,0,1,2,20.55,89.58,89.58,0,0,1-1.57,12.53c-.89,4.61-2.19,9.13-3.05,13.75-1.09,5.86-1.78,11.91-.69,17.83.67,3.69,2.28,7,3.76,10.45.17.41-.18-.43.06.16.09.2.17.4.25.6q.27.68.51,1.35c.32.9.61,1.82.85,2.75a29.76,29.76,0,0,1,1,6.9,59.42,59.42,0,0,1-2.92,20c-3.58,12-9,23.44-15.17,34.3a9.9,9.9,0,0,0-.57,1l-.2.3c-.09-.18,1.26-.06,1.39.24-.29-.67-1.46-1.39-2-1.9C358.17,304.93,354.63,308.46,357,310.68Z"/></g><path id="BODY-4" data-name="BODY" class="cls-2" d="M455.5,901.5c3.44-10.83,8-73,9-81s13-48,13-48,31.28-76.56,45-126c14.2-51.16,1.63-96.89-3-113-8.85-30.76-15.49-27.73-35-73-27.75-64.38-17.77-78.56-42-119-12.51-20.89-40.68-67.9-77-67-35,.87-59.72,45.7-77,77-17.85,32.34-12.38,38-40,112-20.17,54.06-24.65,55.2-29,80-7.79,44.39-.59,81.39,3,99,7,34.29,18.65,60,26,76,15.05,32.71,23.17,38.63,35,68,11.34,28.15,15.33,99.12,18,115"/><g id="EYE-2" data-name="EYE"><path class="cls-3" d="M396.22,571.57l53,81.33s48.6-39.1,52.48-69.14c.89-6.84.95-13.89-.8-20.56-3.8-14.52-16.27-26-30.7-30.15s-30.38-1.28-43.4,6.2-23.21,19.28-30.25,32.54"/><path d="M394.47,572.6c14.44,24.24,29.72,48,45,71.75,2.22,3.44,4.43,6.89,6.66,10.32a3.58,3.58,0,0,0,5.51.71c18.52-14.89,37.54-33.47,48.24-54.91,7.86-15.74,8.83-35.86-1.17-50.93-11.16-16.8-31.34-24.3-51-21.45-24,3.48-43.44,20.86-54.39,41.86-2.15,4.14,4,7.77,6.28,3.67,9.68-17.2,23.86-32,43.54-37.06,18.29-4.68,39,1,49.52,17.34,18.67,29-7.94,60.1-27.61,79.74a237.77,237.77,0,0,1-18.4,16.79l5.5.71c-15.46-23.66-31-47.33-47.15-70.51q-3.51-5.05-7.09-10.08c-1.48-2.08-4.85-.23-3.49,2.05Z"/><path d="M383.84,605.22c2.4-4.45,4.4-9.1,6.7-13.6l-6.42-.84c3,7.68,6.06,15.33,9.14,23,3,7.33,5.53,15,9.35,21.9,2.1,3.8,8.3,1.24,7-3-2.27-7.57-5.94-14.76-9.11-22-3.29-7.55-6.59-15.11-10-22.61-1-2.27-5.05-2.32-6.07,0-2.15,4.9-4.6,9.67-6.64,14.62-1.43,3.46,4.27,5.77,6,2.53Z"/><circle class="cls-4" cx="425.65" cy="574.05" r="6.2"/></g><g id="EYE-3" data-name="EYE"><path class="cls-3" d="M344.05,571.57l-53,81.33s-48.6-39.1-52.48-69.14c-.89-6.84-1-13.89.8-20.56,3.8-14.52,16.27-26,30.71-30.15s30.37-1.28,43.39,6.2,23.21,19.28,30.25,32.54"/><path d="M342.31,570.55c-16.36,23.05-32,46.69-47.5,70.31q-3.37,5.13-6.74,10.28l5.5-.71c-15.77-12.77-31-27.93-42-45C243,592,238,575.6,244.32,560.05c7.25-17.94,27-26.92,45.54-24.84,22.91,2.57,39.93,19.17,50.76,38.41,2.3,4.1,8.44.47,6.28-3.67-9.63-18.48-25.84-34.35-46.23-40.14-19.46-5.52-41.37-1.16-55,14.4-12.23,13.92-14.44,34.41-7.49,51.36,5.95,14.5,16.53,27,27.25,38.25a244.11,244.11,0,0,0,23.22,21.56,3.57,3.57,0,0,0,5.5-.71c15.36-23.68,30.69-47.44,45.36-71.55q3.19-5.25,6.32-10.52c1.36-2.28-2-4.14-3.49-2.05Z"/><path d="M362.44,602.69c-2-5-4.49-9.72-6.64-14.62-1-2.32-5-2.27-6.06,0-3.42,7.5-6.72,15.06-10,22.61-3.17,7.24-6.84,14.43-9.11,22-1.25,4.17,4.92,6.81,7,3,3.82-6.92,6.39-14.57,9.35-21.9,3.08-7.64,6.17-15.29,9.14-23l-6.41.84c2.29,4.5,4.29,9.15,6.69,13.6,1.72,3.21,7.46,1,6-2.53Z"/><circle class="cls-4" cx="314.63" cy="574.05" r="6.2"/></g><g id="STRPIES-SIDE"><polyline class="cls-5" points="299 882.32 317.68 900 303 914"/><polyline class="cls-5" points="452 914.68 438.32 900 459 881.32"/></g><path class="cls-6" d="M349.05,353.9c.61,7.91-7.16,14.24-13.62,16.1-11.83,3.41-26.62-14.86-26.62-14.86s14.29-17.56,26-14.86C340.5,341.6,348.46,346.32,349.05,353.9Z"/><path class="cls-6" d="M388.84,353.9c-.61,7.91,7.16,14.24,13.62,16.1,11.83,3.41,26.62-14.86,26.62-14.86s-14.29-17.56-26-14.86C397.38,341.6,389.42,346.32,388.84,353.9Z"/></g></svg>