<svg xmlns="http://www.w3.org/2000/svg" viewBox="0 0 741 900"><defs><style>.cls-1{fill:#e74b3c;}.cls-1,.cls-2{stroke:#000;stroke-miterlimit:10;stroke-width:6px;}.cls-2{fill:#619f87;}</style></defs><title>Artboard 12 copy 2</title><g id="TILE-VERTICAL"><path class="cls-1" d="M456-8s-2,28,0,33,29,83,7,140-66,102-59,188,54.38,167.6,50,226c-9,120-133.69,227.85-141,222-5.81-4.65,73-156,82-207s-26-121-50-161-63.77-109.54-58-147c10.31-66.89,20.74-71.5,28-142,6.38-62-13-114-15-119s0-33,0-33Z"/><g id="STRPIES-SIDE"><polyline class="cls-2" points="300 -17.68 317.68 0 300 17.68"/><polyline class="cls-2" points="456 17.68 438.32 0 456 -17.68"/></g></g></svg>